<svg width="27" height="27" viewBox="0 0 27 27" fill="none" xmlns="http://www.w3.org/2000/svg">
<circle cx="13.5" cy="13.5" r="13.5" fill="#8229A4"/>
<path fill-rule="evenodd" clip-rule="evenodd" d="M5.76406 7.57278C4.24822 7.89194 4.09827 8.83893 5.30037 10.5008C5.43769 10.6907 5.58215 10.8739 5.62139 10.9079C5.73075 11.0027 6.21648 11.3601 6.69144 11.6954C7.11967 11.9976 8.57822 12.7503 8.74372 12.7545C8.79202 12.7557 8.99205 12.8358 9.18822 12.9324C9.3844 13.029 9.58821 13.1083 9.64114 13.1087C9.69407 13.109 9.83853 13.1537 9.96216 13.2079C10.0858 13.2621 10.4052 13.3749 10.672 13.4585C11.9455 13.8574 11.7211 14.6163 10.4147 14.3287C10.2502 14.2924 9.82669 14.2095 9.47357 14.1442C9.12045 14.0789 8.76734 13.997 8.68887 13.9621C7.80294 13.5678 6.01374 13.1198 6.01374 13.2923C6.01374 13.5497 6.92535 14.899 7.34281 15.2594C7.83204 15.6818 9.13108 16.4651 9.34238 16.4651C9.39282 16.4651 9.57137 16.5258 9.73916 16.5999C10.2434 16.8226 10.7424 16.9656 11.0132 16.9653C11.9051 16.9641 12.3763 17.251 12.1215 17.6403C11.9779 17.8597 10.3597 17.9139 9.68273 17.7221C8.83725 17.4824 8.38711 17.5166 8.5708 17.8063C8.64342 17.9208 10.2306 18.9624 10.334 18.9634C10.3757 18.9638 10.5523 19.0345 10.7264 19.1205C11.4118 19.4591 14.0065 19.6202 15.1805 19.397C16.546 19.1375 16.6304 19.1187 16.7762 19.0406C16.8546 18.9986 17.0006 18.9641 17.1004 18.9641C18.0355 18.9641 19.8942 17.9406 20.9793 16.8282C21.9132 15.8708 21.9487 15.7109 21.3526 15.1442C21.2286 15.0264 21.0741 14.8176 21.0092 14.6801C20.8536 14.3505 18.8927 12.3896 18.2123 11.8834C17.5324 11.3774 16.3454 10.5743 16.0094 10.3929C15.8674 10.3161 15.5586 10.1411 15.3232 10.0039C15.0878 9.86659 14.7186 9.67196 14.5028 9.57135C14.287 9.47068 14.0463 9.35779 13.9678 9.32052C13.7106 9.19821 12.6222 8.81779 12.1487 8.68477C11.8937 8.61309 11.6048 8.52191 11.5067 8.48214C11.4086 8.44237 11.1518 8.36197 10.936 8.30342C9.91422 8.02639 9.67203 7.95892 9.46851 7.89473C9.34802 7.85674 9.16133 7.82568 9.05361 7.82568C8.94596 7.82568 8.78774 7.7872 8.70199 7.74022C8.30679 7.5233 6.49048 7.41984 5.76406 7.57278Z" fill="#0C1218"/>
</svg>
