<svg width="27" height="19" viewBox="0 0 27 19" fill="none" xmlns="http://www.w3.org/2000/svg">
<path d="M17.8024 1.5H9.80237C7.59323 1.5 5.80237 3.29086 5.80237 5.5V13.5C5.80237 15.7091 7.59323 17.5 9.80237 17.5H17.8024C20.0115 17.5 21.8024 15.7091 21.8024 13.5V5.5C21.8024 3.29086 20.0115 1.5 17.8024 1.5Z" stroke="white" stroke-width="2" stroke-linecap="round" stroke-linejoin="round"/>
<path d="M13.8024 12.5C15.4592 12.5 16.8024 11.1569 16.8024 9.5C16.8024 7.84315 15.4592 6.5 13.8024 6.5C12.1455 6.5 10.8024 7.84315 10.8024 9.5C10.8024 11.1569 12.1455 12.5 13.8024 12.5Z" stroke="white" stroke-width="2" stroke-linecap="round" stroke-linejoin="round"/>
<path d="M18.3024 5V5.001" stroke="white" stroke-width="2" stroke-linecap="round" stroke-linejoin="round"/>
</svg>
