<svg width="28" height="15" viewBox="0 0 28 15" fill="none" xmlns="http://www.w3.org/2000/svg">
<path fill-rule="evenodd" clip-rule="evenodd" d="M21.6786 0.0521949C21.577 0.0861009 21.1846 0.234009 21.0727 0.280674C21.04 0.294289 20.8422 0.371533 20.6331 0.452366C20.424 0.533198 20.2315 0.608043 20.2054 0.618688C20.1793 0.629333 19.9868 0.704177 19.7777 0.78501C19.5686 0.865843 19.3762 0.940687 19.35 0.951332C19.3239 0.962 19.1047 1.04754 18.863 1.14141C18.6212 1.23529 18.402 1.32083 18.3759 1.3315C18.3497 1.34214 18.1573 1.41699 17.9482 1.49782C17.7391 1.57865 17.5466 1.65304 17.5205 1.66317C17.4944 1.67326 17.4462 1.69268 17.4136 1.70629C17.3809 1.71991 17.1831 1.79715 16.974 1.87798C16.7649 1.95882 16.5725 2.03366 16.5463 2.04431C16.5202 2.05495 16.3277 2.1298 16.1186 2.21063C15.9095 2.29146 15.7171 2.36631 15.691 2.37695C15.6648 2.38762 15.4456 2.47316 15.2039 2.56703C14.9621 2.66091 14.7429 2.74645 14.7168 2.75711C14.6906 2.76776 14.4982 2.8426 14.2891 2.92344C14.08 3.00427 13.8822 3.08151 13.8495 3.09513C13.8169 3.10874 13.7687 3.12815 13.7426 3.13825C13.7165 3.14837 13.524 3.22277 13.3149 3.3036C13.1058 3.38443 12.9134 3.45928 12.8872 3.46992C12.8611 3.48057 12.6686 3.55541 12.4596 3.63625C12.2505 3.71708 12.058 3.79192 12.0319 3.80257C12.0057 3.81324 11.7865 3.89877 11.5448 3.99265C11.303 4.08653 11.0838 4.17206 11.0577 4.18273C11.0316 4.19338 10.8391 4.26822 10.63 4.34905C10.4209 4.42989 10.2258 4.50571 10.1964 4.51756C10.167 4.52944 10.1189 4.54883 10.0895 4.56071C10.06 4.57257 9.86493 4.64839 9.65584 4.72922C9.44675 4.81005 9.25429 4.8849 9.22815 4.89554C9.20202 4.90619 9.00956 4.98103 8.80047 5.06186C8.59138 5.14269 8.39892 5.21754 8.37278 5.22818C8.34664 5.23885 8.12746 5.32439 7.88569 5.41827C7.64393 5.51214 7.42475 5.59768 7.39861 5.60835C7.37247 5.61902 7.15328 5.70455 6.91152 5.79843C6.66976 5.89231 6.45057 5.97785 6.42444 5.98851C6.3983 5.99916 6.20584 6.074 5.99675 6.15484C5.78766 6.23567 5.5952 6.31042 5.56907 6.32094C5.54293 6.33149 5.48412 6.35383 5.43838 6.37056C4.80878 6.60101 4.87576 7.58045 5.52114 7.58045C5.53972 7.58045 5.57952 7.59017 5.60953 7.60203C5.63954 7.61388 5.7443 7.64675 5.84231 7.67502C5.94032 7.70329 6.09001 7.74713 6.17495 7.77244C6.2599 7.79774 6.36682 7.82896 6.41256 7.84182C6.5209 7.87225 6.81185 7.95898 6.88776 7.98348C6.92043 7.994 6.98993 8.01446 7.0422 8.02895C7.1529 8.0596 7.44321 8.14578 7.52929 8.17356C7.56196 8.18408 7.63146 8.20454 7.68373 8.21904C7.73601 8.23351 7.85093 8.26682 7.93916 8.29307C8.02738 8.3193 8.1717 8.36226 8.25992 8.38849C8.34814 8.41475 8.46307 8.44806 8.51534 8.46253C8.56762 8.47702 8.63711 8.49758 8.66978 8.50825C8.70246 8.51889 8.80938 8.55085 8.90739 8.57924C9.0054 8.60761 9.11232 8.63933 9.14499 8.64969C9.17766 8.66007 9.26854 8.68716 9.34695 8.7099C9.53338 8.76398 9.53373 8.76433 9.59527 8.9647C9.62433 9.05934 9.66705 9.19556 9.69024 9.26743C9.71341 9.33931 9.76751 9.51038 9.81047 9.6476C9.85343 9.78481 9.91749 9.98797 9.95284 10.099C9.9882 10.2101 10.0523 10.4133 10.0952 10.5505C10.1382 10.6877 10.1922 10.8588 10.2153 10.9307C10.2384 11.0025 10.3021 11.2057 10.3568 11.3821C10.4115 11.5585 10.4756 11.7617 10.4993 11.8335C10.523 11.9054 10.5872 12.1086 10.6419 12.285C10.6966 12.4614 10.7607 12.6646 10.7843 12.7364C10.808 12.8083 10.8617 12.9794 10.9038 13.1166C11.0882 13.7174 11.1277 13.8094 11.2598 13.9455C11.4529 14.1445 11.8032 14.2068 12.0578 14.0874C12.171 14.0343 12.7317 13.4826 14.0163 12.1602C14.4426 11.7214 14.3744 11.7411 14.683 11.9684C14.9407 12.1582 15.1508 12.3126 15.4534 12.5345C15.8613 12.8336 15.9901 12.9283 16.2639 13.1301C16.4222 13.2468 16.7199 13.4653 16.9254 13.6156C17.131 13.7659 17.4505 14.0002 17.6355 14.1365C17.8206 14.2727 18.0521 14.443 18.1501 14.515C18.2482 14.587 18.3873 14.69 18.4593 14.744C19.1412 15.2548 19.8608 14.975 20.0166 14.1383C20.0251 14.0926 20.0417 14.0124 20.0535 13.9601C20.0652 13.9078 20.0854 13.8116 20.0982 13.7463C20.1111 13.6809 20.1433 13.5259 20.1698 13.4017C20.1963 13.2776 20.2284 13.1225 20.2413 13.0572C20.2542 12.9919 20.2754 12.8903 20.2886 12.8315C20.3017 12.7727 20.3231 12.6711 20.3361 12.6058C20.3491 12.5404 20.3705 12.4388 20.3836 12.38C20.3968 12.3212 20.418 12.2197 20.4309 12.1543C20.4438 12.089 20.4747 11.9393 20.4997 11.8217C20.5979 11.3596 20.6513 11.1048 20.6689 11.0138C20.679 10.9615 20.7003 10.86 20.7163 10.7881C20.7322 10.7162 20.7535 10.6146 20.7636 10.5624C20.7812 10.4714 20.8346 10.2165 20.9328 9.75452C20.9578 9.63691 20.9888 9.48722 21.0016 9.42188C21.0145 9.35653 21.0358 9.25496 21.0489 9.19615C21.062 9.13735 21.0834 9.03577 21.0964 8.97043C21.1094 8.90509 21.1309 8.80351 21.144 8.74471C21.1572 8.6859 21.1774 8.58967 21.1889 8.53087C21.2094 8.42618 21.2697 8.13834 21.3605 7.71113C21.3855 7.59352 21.4165 7.44383 21.4293 7.37849C21.4422 7.31315 21.4634 7.21158 21.4766 7.15277C21.4897 7.09396 21.511 6.99239 21.5238 6.92705C21.5367 6.8617 21.5677 6.71201 21.5927 6.5944C21.6909 6.13238 21.7443 5.87751 21.7619 5.78655C21.772 5.73428 21.7933 5.6327 21.8092 5.56083C21.8252 5.48895 21.8465 5.38738 21.8566 5.33511C21.8742 5.24415 21.9276 4.98927 22.0258 4.52726C22.0508 4.40964 22.0817 4.25995 22.0946 4.19461C22.1075 4.12927 22.1287 4.0277 22.1419 3.96889C22.155 3.91008 22.1764 3.80851 22.1894 3.74317C22.2024 3.67783 22.2238 3.57625 22.237 3.51744C22.2502 3.45864 22.2704 3.36241 22.2819 3.3036C22.3024 3.19891 22.3627 2.91108 22.4534 2.48387C22.4785 2.36626 22.5094 2.21657 22.5223 2.15123C22.5352 2.08589 22.5564 1.98431 22.5696 1.9255C22.5827 1.8667 22.604 1.76512 22.6168 1.69978C22.6297 1.63444 22.6629 1.4794 22.6906 1.35526C22.8947 0.439939 22.4053 -0.190184 21.6786 0.0521949ZM19.5721 2.72972C19.7364 2.85617 19.6873 2.92372 18.9818 3.54192C18.7661 3.73081 18.5844 3.89096 18.5778 3.89777C18.5713 3.90457 18.4751 3.99018 18.364 4.08802C18.2529 4.18584 18.1567 4.27155 18.1501 4.27844C18.1436 4.28533 17.9618 4.44564 17.7462 4.63468C17.5306 4.82369 17.3488 4.98393 17.3423 4.99075C17.3358 4.99754 17.2395 5.08315 17.1285 5.181C17.0174 5.27882 16.9211 5.36452 16.9146 5.37141C16.9081 5.3783 16.7263 5.53861 16.5107 5.72765C16.2951 5.91666 16.1133 6.0769 16.1068 6.08372C16.1002 6.09052 16.004 6.17613 15.8929 6.27397C15.7818 6.37179 15.6856 6.45749 15.6791 6.46439C15.6725 6.47128 15.4908 6.63159 15.2751 6.82062C15.0595 7.00964 14.8778 7.16988 14.8712 7.17669C14.8647 7.18349 14.7685 7.2691 14.6574 7.36694C14.5463 7.46477 14.4501 7.55047 14.4435 7.55736C14.437 7.56425 14.2552 7.72456 14.0396 7.9136C13.824 8.10261 13.6422 8.26285 13.6357 8.26967C13.6292 8.27646 13.5329 8.36207 13.4218 8.45992C13.3108 8.55774 13.2145 8.64344 13.208 8.65033C13.2015 8.65722 13.0197 8.81753 12.8041 9.00657C12.5885 9.19558 12.4067 9.35573 12.4002 9.36243C12.3936 9.3691 12.2957 9.45783 12.1825 9.55957C11.9615 9.75832 11.8774 9.89162 11.8774 10.0434C11.8774 10.0915 11.8675 10.1958 11.8553 10.2753C11.8431 10.3548 11.8211 10.5321 11.8064 10.6693C11.7917 10.8065 11.7702 10.999 11.7586 11.097C11.747 11.195 11.7256 11.3874 11.7111 11.5247C11.6348 12.2446 11.5883 12.5676 11.5572 12.5934C11.5086 12.6337 11.4612 12.568 11.4031 12.38C11.3729 12.282 11.3295 12.143 11.3068 12.0711C11.2632 11.9329 11.153 11.5765 11.0683 11.2989C11.0403 11.2075 10.9986 11.0738 10.9755 11.0019C10.9525 10.9301 10.9093 10.7911 10.8795 10.6931C10.8497 10.595 10.8064 10.456 10.7831 10.3842C10.7599 10.3123 10.707 10.1412 10.6656 10.004C10.6243 9.86679 10.5714 9.69571 10.5482 9.62384C10.5249 9.55196 10.4831 9.41831 10.4552 9.32683C10.4273 9.23536 10.3723 9.0602 10.3331 8.93759C10.1643 8.41031 10.1628 8.41233 11.1884 7.77816C11.6999 7.46187 11.8388 7.37571 12.0437 7.24781C12.1418 7.18663 12.2968 7.09049 12.3883 7.03418C12.4797 6.97785 12.6266 6.88525 12.7147 6.82842C12.8027 6.77158 12.8804 6.72508 12.8872 6.72508C12.8941 6.72508 12.9717 6.67863 13.0598 6.62184C13.2312 6.51134 13.5042 6.34012 13.7545 6.18625C14.0538 6.0022 14.2434 5.88473 14.4198 5.77405C14.5178 5.71254 14.7584 5.56309 14.9544 5.44196C15.5026 5.10313 15.6058 5.0392 15.7979 4.9193C15.8959 4.85812 16.0509 4.76198 16.1424 4.70567C16.2339 4.64934 16.3808 4.55674 16.4688 4.49991C16.5569 4.44307 16.6345 4.39657 16.6414 4.39657C16.6482 4.39657 16.7259 4.35012 16.8139 4.29334C16.9853 4.18283 17.2583 4.01161 17.5086 3.85774C17.808 3.67369 17.9976 3.55622 18.1739 3.44554C18.2719 3.38403 18.5125 3.23448 18.7085 3.11319C18.9045 2.99189 19.139 2.84612 19.2295 2.78924C19.4082 2.67699 19.4859 2.66348 19.5721 2.72972Z" fill="white"/>
</svg>
