<svg width="29" height="16" viewBox="0 0 29 16" fill="none" xmlns="http://www.w3.org/2000/svg">
<path fill-rule="evenodd" clip-rule="evenodd" d="M22.3946 0.552195C22.293 0.586101 21.9007 0.734009 21.7887 0.780674C21.7561 0.794289 21.5583 0.871533 21.3492 0.952366C21.1401 1.0332 20.9476 1.10804 20.9215 1.11869C20.8953 1.12933 20.7029 1.20418 20.4938 1.28501C20.2847 1.36584 20.0922 1.44069 20.0661 1.45133C20.04 1.462 19.8208 1.54754 19.579 1.64141C19.3373 1.73529 19.1181 1.82083 19.0919 1.8315C19.0658 1.84214 18.8733 1.91699 18.6642 1.99782C18.4552 2.07865 18.2627 2.15304 18.2366 2.16317C18.2104 2.17326 18.1623 2.19268 18.1296 2.20629C18.097 2.21991 17.8992 2.29715 17.6901 2.37798C17.481 2.45882 17.2885 2.53366 17.2624 2.54431C17.2363 2.55495 17.0438 2.6298 16.8347 2.71063C16.6256 2.79146 16.4332 2.86631 16.407 2.87695C16.3809 2.88762 16.1617 2.97316 15.9199 3.06703C15.6782 3.16091 15.459 3.24645 15.4328 3.25711C15.4067 3.26776 15.2143 3.3426 15.0052 3.42344C14.7961 3.50427 14.5983 3.58151 14.5656 3.59513C14.5329 3.60874 14.4848 3.62815 14.4587 3.63825C14.4325 3.64837 14.2401 3.72277 14.031 3.8036C13.8219 3.88443 13.6294 3.95928 13.6033 3.96992C13.5772 3.98057 13.3847 4.05541 13.1756 4.13625C12.9665 4.21708 12.7741 4.29192 12.7479 4.30257C12.7218 4.31324 12.5026 4.39877 12.2608 4.49265C12.0191 4.58653 11.7999 4.67206 11.7738 4.68273C11.7476 4.69338 11.5552 4.76822 11.3461 4.84905C11.137 4.92989 10.9419 5.00571 10.9124 5.01756C10.883 5.02944 10.8349 5.04883 10.8055 5.06071C10.7761 5.07257 10.581 5.14839 10.3719 5.22922C10.1628 5.31005 9.97035 5.3849 9.94422 5.39554C9.91808 5.40619 9.72562 5.48103 9.51653 5.56186C9.30744 5.64269 9.11498 5.71754 9.08885 5.72818C9.06271 5.73885 8.84352 5.82439 8.60176 5.91827C8.36 6.01214 8.14081 6.09768 8.11467 6.10835C8.08854 6.11902 7.86935 6.20455 7.62759 6.29843C7.38583 6.39231 7.16664 6.47785 7.1405 6.48851C7.11436 6.49916 6.92191 6.574 6.71282 6.65484C6.50372 6.73567 6.31127 6.81042 6.28513 6.82094C6.25899 6.83149 6.20019 6.85383 6.15445 6.87056C5.52485 7.10101 5.59183 8.08045 6.23721 8.08045C6.25579 8.08045 6.29558 8.09017 6.32559 8.10203C6.3556 8.11388 6.46036 8.14675 6.55837 8.17502C6.65638 8.20329 6.80607 8.24713 6.89102 8.27244C6.97596 8.29774 7.08288 8.32896 7.12862 8.34182C7.23697 8.37225 7.52791 8.45898 7.60383 8.48348C7.6365 8.494 7.706 8.51446 7.75827 8.52895C7.86897 8.5596 8.15927 8.64578 8.24535 8.67356C8.27803 8.68408 8.34752 8.70454 8.3998 8.71904C8.45207 8.73351 8.567 8.76682 8.65522 8.79307C8.74344 8.8193 8.88776 8.86226 8.97598 8.88849C9.06421 8.91475 9.17913 8.94806 9.23141 8.96253C9.28368 8.97702 9.35318 8.99758 9.38585 9.00825C9.41852 9.01889 9.52544 9.05085 9.62345 9.07924C9.72146 9.10761 9.82838 9.13933 9.86106 9.14969C9.89373 9.16007 9.98461 9.18716 10.063 9.2099C10.2494 9.26398 10.2498 9.26433 10.3113 9.4647C10.3404 9.55934 10.3831 9.69556 10.4063 9.76743C10.4295 9.83931 10.4836 10.0104 10.5265 10.1476C10.5695 10.2848 10.6336 10.488 10.6689 10.599C10.7043 10.7101 10.7683 10.9133 10.8113 11.0505C10.8542 11.1877 10.9083 11.3588 10.9314 11.4307C10.9545 11.5025 11.0181 11.7057 11.0728 11.8821C11.1275 12.0585 11.1917 12.2617 11.2154 12.3335C11.2391 12.4054 11.3033 12.6086 11.358 12.785C11.4127 12.9614 11.4767 13.1646 11.5004 13.2364C11.524 13.3083 11.5778 13.4794 11.6199 13.6166C11.8043 14.2174 11.8438 14.3094 11.9758 14.4455C12.169 14.6445 12.5192 14.7068 12.7739 14.5874C12.887 14.5343 13.4477 13.9826 14.7324 12.6602C15.1587 12.2214 15.0904 12.2411 15.3991 12.4684C15.6567 12.6582 15.8669 12.8126 16.1694 13.0345C16.5774 13.3336 16.7062 13.4283 16.9799 13.6301C17.1382 13.7468 17.4359 13.9653 17.6415 14.1156C17.847 14.2659 18.1666 14.5002 18.3516 14.6365C18.5366 14.7727 18.7682 14.943 18.8662 15.015C18.9642 15.087 19.1033 15.19 19.1753 15.244C19.8573 15.7548 20.5768 15.475 20.7327 14.6383C20.7412 14.5926 20.7578 14.5124 20.7695 14.4601C20.7813 14.4078 20.8014 14.3116 20.8143 14.2463C20.8272 14.1809 20.8593 14.0259 20.8858 13.9017C20.9123 13.7776 20.9445 13.6225 20.9574 13.5572C20.9702 13.4919 20.9915 13.3903 21.0046 13.3315C21.0178 13.2727 21.0392 13.1711 21.0522 13.1058C21.0652 13.0404 21.0865 12.9388 21.0997 12.88C21.1128 12.8212 21.1341 12.7197 21.1469 12.6543C21.1598 12.589 21.1908 12.4393 21.2158 12.3217C21.314 11.8596 21.3674 11.6048 21.385 11.5138C21.3951 11.4615 21.4164 11.36 21.4323 11.2881C21.4483 11.2162 21.4696 11.1146 21.4797 11.0624C21.4973 10.9714 21.5507 10.7165 21.6488 10.2545C21.6739 10.1369 21.7048 9.98722 21.7177 9.92188C21.7306 9.85653 21.7518 9.75496 21.765 9.69615C21.7781 9.63735 21.7995 9.53577 21.8125 9.47043C21.8255 9.40509 21.8469 9.30351 21.8601 9.24471C21.8733 9.1859 21.8935 9.08967 21.905 9.03087C21.9255 8.92618 21.9857 8.63834 22.0765 8.21113C22.1016 8.09352 22.1325 7.94383 22.1454 7.87849C22.1582 7.81315 22.1795 7.71158 22.1927 7.65277C22.2058 7.59396 22.2271 7.49239 22.2399 7.42705C22.2528 7.3617 22.2837 7.21201 22.3088 7.0944C22.4069 6.63238 22.4603 6.37751 22.4779 6.28655C22.4881 6.23428 22.5094 6.1327 22.5253 6.06083C22.5412 5.98895 22.5625 5.88738 22.5727 5.83511C22.5903 5.74415 22.6436 5.48927 22.7418 5.02726C22.7668 4.90964 22.7978 4.75995 22.8107 4.69461C22.8235 4.62927 22.8448 4.5277 22.8579 4.46889C22.8711 4.41008 22.8925 4.30851 22.9055 4.24317C22.9185 4.17783 22.9399 4.07625 22.9531 4.01744C22.9662 3.95864 22.9865 3.86241 22.998 3.8036C23.0185 3.69891 23.0787 3.41108 23.1695 2.98387C23.1945 2.86626 23.2255 2.71657 23.2384 2.65123C23.2512 2.58589 23.2725 2.48431 23.2856 2.4255C23.2988 2.3667 23.32 2.26512 23.3329 2.19978C23.3458 2.13444 23.3789 1.9794 23.4066 1.85526C23.6108 0.939939 23.1214 0.309816 22.3946 0.552195ZM20.2881 3.22972C20.4525 3.35617 20.4034 3.42372 19.6978 4.04192C19.4822 4.23081 19.3004 4.39096 19.2939 4.39777C19.2874 4.40457 19.1911 4.49018 19.0801 4.58802C18.969 4.68584 18.8727 4.77155 18.8662 4.77844C18.8597 4.78533 18.6779 4.94564 18.4623 5.13468C18.2467 5.32369 18.0649 5.48393 18.0584 5.49075C18.0518 5.49754 17.9556 5.58315 17.8445 5.681C17.7334 5.77882 17.6372 5.86452 17.6307 5.87141C17.6241 5.8783 17.4424 6.03861 17.2267 6.22765C17.0111 6.41666 16.8294 6.5769 16.8228 6.58372C16.8163 6.59052 16.7201 6.67613 16.609 6.77397C16.4979 6.87179 16.4017 6.95749 16.3951 6.96439C16.3886 6.97128 16.2068 7.13159 15.9912 7.32062C15.7756 7.50964 15.5938 7.66988 15.5873 7.67669C15.5808 7.68349 15.4845 7.7691 15.3734 7.86694C15.2624 7.96477 15.1661 8.05047 15.1596 8.05736C15.1531 8.06425 14.9713 8.22456 14.7557 8.4136C14.5401 8.60261 14.3583 8.76285 14.3518 8.76967C14.3452 8.77646 14.249 8.86207 14.1379 8.95992C14.0268 9.05774 13.9306 9.14344 13.9241 9.15033C13.9175 9.15722 13.7358 9.31753 13.5201 9.50657C13.3045 9.69558 13.1228 9.85573 13.1162 9.86243C13.1097 9.8691 13.0118 9.95783 12.8986 10.0596C12.6776 10.2583 12.5935 10.3916 12.5935 10.5434C12.5935 10.5915 12.5835 10.6958 12.5714 10.7753C12.5592 10.8548 12.5372 11.0321 12.5225 11.1693C12.5078 11.3065 12.4863 11.499 12.4747 11.597C12.4631 11.695 12.4417 11.8874 12.4272 12.0247C12.3509 12.7446 12.3044 13.0676 12.2733 13.0934C12.2247 13.1337 12.1772 13.068 12.1192 12.88C12.0889 12.782 12.0456 12.643 12.0229 12.5711C11.9792 12.4329 11.8691 12.0765 11.7843 11.7989C11.7564 11.7075 11.7147 11.5738 11.6916 11.5019C11.6685 11.4301 11.6253 11.2911 11.5956 11.1931C11.5658 11.095 11.5224 10.956 11.4992 10.8842C11.476 10.8123 11.4231 10.6412 11.3817 10.504C11.3403 10.3668 11.2875 10.1957 11.2642 10.1238C11.241 10.052 11.1992 9.91831 11.1712 9.82683C11.1434 9.73536 11.0884 9.5602 11.0491 9.43759C10.8804 8.91031 10.8789 8.91233 11.9044 8.27816C12.416 7.96187 12.5549 7.87571 12.7598 7.74781C12.8578 7.68663 13.0129 7.59049 13.1043 7.53418C13.1958 7.47785 13.3427 7.38525 13.4308 7.32842C13.5188 7.27158 13.5965 7.22508 13.6033 7.22508C13.6101 7.22508 13.6878 7.17863 13.7759 7.12184C13.9473 7.01134 14.2203 6.84012 14.4706 6.68625C14.7699 6.5022 14.9595 6.38473 15.1358 6.27405C15.2339 6.21254 15.4744 6.06309 15.6704 5.94196C16.2187 5.60313 16.3219 5.5392 16.5139 5.4193C16.612 5.35812 16.767 5.26198 16.8585 5.20567C16.9499 5.14934 17.0968 5.05674 17.1849 4.99991C17.2729 4.94307 17.3506 4.89657 17.3574 4.89657C17.3643 4.89657 17.4419 4.85012 17.53 4.79334C17.7014 4.68283 17.9744 4.51161 18.2247 4.35774C18.524 4.17369 18.7136 4.05622 18.89 3.94554C18.988 3.88403 19.2286 3.73448 19.4246 3.61319C19.6206 3.49189 19.855 3.34612 19.9456 3.28924C20.1242 3.17699 20.202 3.16348 20.2881 3.22972Z" fill="white"/>
</svg>
