<svg width="24" height="15" viewBox="0 0 24 15" fill="none" xmlns="http://www.w3.org/2000/svg">
<path fill-rule="evenodd" clip-rule="evenodd" d="M11.9371 0.0192701C11.9216 0.0347598 11.9089 2.47887 11.9089 5.45066V10.8539L11.8038 11.1332C11.1873 12.771 9.1372 13.1247 8.07076 11.7772C6.8199 10.1967 8.28675 7.8856 10.2532 8.33889C10.5097 8.398 10.5032 8.43299 10.5039 6.98579C10.5047 5.48523 10.5736 5.63939 9.89182 5.61671C4.127 5.42476 3.25041 13.5825 8.89362 14.9064C10.9559 15.3901 13.4417 13.944 14.1521 11.8471C14.4061 11.0974 14.4005 11.18 14.4175 7.9747C14.4298 5.65847 14.4441 5.03165 14.4847 5.03165C14.513 5.03165 14.6096 5.08498 14.6993 5.1502C15.3993 5.65921 16.6564 6.08388 17.7207 6.17083C18.1432 6.20536 18.1106 6.3187 18.0958 4.8666L18.0842 3.73085L17.8983 3.69764C15.7768 3.31845 14.5952 2.20869 14.3707 0.384744L14.3249 0.0129916L13.1451 0.00204558C12.4962 -0.00398507 11.9526 0.00378042 11.9371 0.0192701Z" fill="white"/>
</svg>
