<svg width="37" height="16" viewBox="0 0 37 16" fill="none" xmlns="http://www.w3.org/2000/svg">
<path fill-rule="evenodd" clip-rule="evenodd" d="M16.1406 0.523671C15.1449 0.612474 14.5749 0.842052 14.2933 1.26771C14.1605 1.46834 14.1827 1.51521 14.4396 1.57691C15.288 1.7806 15.5992 2.16704 15.7709 3.23016C15.8385 3.64919 15.8405 6.09665 15.7735 6.48575C15.5948 7.52358 15.4108 7.83784 14.9856 7.83141C14.4601 7.82348 13.6407 6.8734 12.5904 5.05408C12.553 4.98936 12.4321 4.78084 12.3217 4.59076C12.1442 4.28525 11.5262 3.05197 11.3647 2.68103C11.3318 2.60552 11.2589 2.44172 11.2026 2.31703C11.1464 2.19238 11.1003 2.08094 11.1003 2.06941C11.1003 1.82928 10.727 1.38699 10.403 1.2432L10.1959 1.15129L8.20641 1.15271C5.63113 1.15451 5.45662 1.19079 5.45332 1.72506C5.45195 1.94413 5.46517 1.98214 5.80591 2.73986C6.22596 3.67402 7.01883 5.26291 7.54298 6.22099C7.62264 6.36663 7.75298 6.60487 7.83261 6.75051C7.91223 6.89611 8.06454 7.16531 8.17103 7.34868C8.27757 7.53205 8.39963 7.74386 8.44231 7.81937C8.48498 7.89487 8.53378 7.9743 8.55076 7.99587C8.56774 8.01745 8.61662 8.09688 8.65937 8.17238C8.89832 8.59427 9.863 10.0711 10.1198 10.4081C10.1774 10.4837 10.3495 10.7131 10.5023 10.9181C12.1518 13.1297 14.066 14.5647 16.1014 15.1156C16.5473 15.2363 16.6812 15.268 16.9251 15.3105C17.0761 15.3368 17.2844 15.3743 17.3879 15.3936C17.6835 15.4489 20.0293 15.4384 20.1975 15.381C20.6 15.2436 20.8279 14.948 20.8279 14.5632C20.8279 13.5704 21.0992 12.5884 21.4723 12.2309C22.0327 11.6939 22.5626 11.9907 23.962 13.6253C24.927 14.7524 25.5797 15.2291 26.4854 15.4682C26.8121 15.5544 30.7547 15.4493 31.0694 15.3459C32.5112 14.8727 31.8368 13.5653 28.5662 10.493C27.3221 9.32431 27.237 9.01774 27.8809 8.02349C27.9968 7.84451 28.2011 7.55327 28.3349 7.37629C28.582 7.04932 29.1454 6.31838 29.2329 6.21118C29.2739 6.16082 29.7422 5.53571 29.9674 5.23059C31.3386 3.37255 31.9959 2.01563 31.7525 1.54506C31.5457 1.14514 31.4737 1.13647 28.6138 1.16722C25.6486 1.19911 25.7784 1.16993 25.4994 1.86713C25.48 1.91569 25.427 2.03905 25.3818 2.14127C25.3365 2.24352 25.2994 2.33566 25.2994 2.34602C25.2994 2.35641 25.2572 2.45812 25.2057 2.57199C25.1542 2.68589 25.0733 2.86734 25.026 2.97521C24.8594 3.35509 24.4171 4.23418 24.2267 4.56378C24.1208 4.74715 24.0021 4.95335 23.9629 5.02203C23.8914 5.14727 23.7841 5.31715 23.3855 5.93662C22.0673 7.98485 21.1578 8.3441 20.8682 6.93094C20.819 6.69042 20.8321 4.1371 20.8905 2.60258C20.9264 1.66019 20.8198 1.21048 20.4921 0.92203C20.3072 0.75929 20.1093 0.684725 19.5335 0.560895C19.2745 0.505236 16.6682 0.476642 16.1406 0.523671Z" fill="white"/>
</svg>
