<svg width="38" height="15" viewBox="0 0 38 15" fill="none" xmlns="http://www.w3.org/2000/svg">
<path fill-rule="evenodd" clip-rule="evenodd" d="M16.4247 0.0236713C15.429 0.112474 14.859 0.342052 14.5773 0.767711C14.4445 0.968341 14.4667 1.01521 14.7237 1.07691C15.5721 1.2806 15.8832 1.66704 16.0549 2.73016C16.1226 3.14919 16.1246 5.59665 16.0576 5.98575C15.8788 7.02358 15.6948 7.33784 15.2697 7.33141C14.7441 7.32348 13.9248 6.3734 12.8745 4.55408C12.8371 4.48936 12.7161 4.28084 12.6057 4.09076C12.4283 3.78525 11.8103 2.55197 11.6487 2.18103C11.6159 2.10552 11.5429 1.94172 11.4867 1.81703C11.4304 1.69238 11.3844 1.58094 11.3844 1.56941C11.3844 1.32928 11.0111 0.886991 10.687 0.743196L10.48 0.651294L8.49047 0.652706C5.91518 0.65451 5.74068 0.690792 5.73738 1.22506C5.73601 1.44413 5.74923 1.48214 6.08997 2.23986C6.51001 3.17402 7.30289 4.76291 7.82704 5.72099C7.9067 5.86663 8.03704 6.10487 8.11667 6.25051C8.19629 6.39611 8.3486 6.66531 8.45509 6.84868C8.56162 7.03205 8.68369 7.24386 8.72636 7.31937C8.76904 7.39487 8.81783 7.4743 8.83482 7.49587C8.8518 7.51745 8.90067 7.59688 8.94343 7.67238C9.18238 8.09427 10.1471 9.57106 10.4039 9.90815C10.4614 9.98365 10.6336 10.2131 10.7864 10.4181C12.4359 12.6297 14.3501 14.0647 16.3854 14.6156C16.8314 14.7363 16.9652 14.768 17.2091 14.8105C17.3601 14.8368 17.5684 14.8743 17.6719 14.8936C17.9676 14.9489 20.3134 14.9384 20.4815 14.881C20.8841 14.7436 21.1119 14.448 21.1119 14.0632C21.1119 13.0704 21.3833 12.0884 21.7563 11.7309C22.3167 11.1939 22.8467 11.4907 24.2461 13.1253C25.2111 14.2524 25.8638 14.7291 26.7695 14.9682C27.0962 15.0544 31.0387 14.9493 31.3535 14.8459C32.7952 14.3727 32.1209 13.0653 28.8503 9.99299C27.6062 8.82431 27.5211 8.51774 28.165 7.52349C28.2809 7.34451 28.4851 7.05327 28.6189 6.87629C28.8661 6.54932 29.4294 5.81838 29.5169 5.71118C29.558 5.66082 30.0263 5.03571 30.2514 4.73059C31.6227 2.87255 32.2799 1.51563 32.0366 1.04506C31.8298 0.645136 31.7578 0.636467 28.8979 0.667219C25.9327 0.699108 26.0624 0.669925 25.7835 1.36713C25.764 1.41569 25.7111 1.53905 25.6658 1.64127C25.6205 1.74352 25.5834 1.83566 25.5834 1.84602C25.5834 1.85641 25.5413 1.95812 25.4898 2.07199C25.4383 2.18589 25.3574 2.36734 25.3101 2.47521C25.1435 2.85509 24.7011 3.73418 24.5108 4.06378C24.4049 4.24715 24.2861 4.45335 24.2469 4.52203C24.1755 4.64727 24.0682 4.81715 23.6695 5.43662C22.3513 7.48485 21.4419 7.8441 21.1523 6.43094C21.103 6.19042 21.1161 3.6371 21.1746 2.10258C21.2104 1.16019 21.1038 0.710483 20.7761 0.42203C20.5912 0.25929 20.3933 0.184725 19.8175 0.0608947C19.5586 0.00523592 16.9522 -0.0233582 16.4247 0.0236713Z" fill="white"/>
</svg>
