<svg width="122" height="30" viewBox="0 0 122 30" fill="none" xmlns="http://www.w3.org/2000/svg">
<path fill-rule="evenodd" clip-rule="evenodd" d="M2.27042 0.127927C-0.186077 0.688892 -0.42908 2.35334 1.51899 5.27437C1.74153 5.60807 1.97563 5.93009 2.03921 5.98982C2.21643 6.15648 3.00359 6.78471 3.77329 7.37391C4.46727 7.90514 6.83093 9.22811 7.09914 9.23551C7.1774 9.23765 7.50156 9.37833 7.81948 9.54812C8.13739 9.71792 8.46767 9.85734 8.55345 9.85797C8.63923 9.8586 8.87333 9.93703 9.07368 10.0324C9.27402 10.1277 9.7917 10.3258 10.224 10.4728C12.2877 11.174 11.9242 12.5078 9.80708 12.0023C9.54049 11.9386 8.85414 11.7927 8.2819 11.678C7.70965 11.5633 7.1374 11.4194 7.01024 11.358C5.57454 10.6649 2.67504 9.87755 2.67504 10.1807C2.67504 10.6332 4.15236 13.0046 4.82888 13.6381C5.6217 14.3806 7.72688 15.7574 8.0693 15.7574C8.15103 15.7574 8.44039 15.8639 8.7123 15.9942C9.52951 16.3856 10.3382 16.6371 10.777 16.6365C12.2223 16.6344 12.986 17.1387 12.5731 17.8229C12.3403 18.2084 9.71795 18.3038 8.62085 17.9666C7.2507 17.5455 6.52123 17.6054 6.81891 18.1147C6.9366 18.3159 9.5087 20.1466 9.67633 20.1485C9.74384 20.1491 10.03 20.2735 10.3122 20.4246C11.4229 21.0197 15.6278 21.3028 17.5303 20.9106C19.7431 20.4544 19.88 20.4213 20.1162 20.2841C20.2433 20.2102 20.4799 20.1497 20.6416 20.1497C22.157 20.1497 25.1692 18.3508 26.9276 16.3955C28.441 14.7128 28.4985 14.4317 27.5325 13.4357C27.3316 13.2287 27.0813 12.8616 26.9761 12.62C26.724 12.0406 23.5461 8.59411 22.4436 7.70434C21.3417 6.81508 19.418 5.40351 18.8737 5.08462C18.6435 4.94972 18.143 4.64213 17.7615 4.40092C17.38 4.1596 16.7818 3.8175 16.4321 3.64067C16.0824 3.46372 15.6922 3.26531 15.565 3.19981C15.1483 2.98483 13.3844 2.31619 12.6171 2.08239C12.2038 1.9564 11.7356 1.79614 11.5766 1.72624C11.4177 1.65634 11.0015 1.51503 10.6518 1.41212C8.99599 0.9252 8.60351 0.806607 8.27369 0.693786C8.07843 0.627023 7.77589 0.572432 7.60133 0.572432C7.42688 0.572432 7.17047 0.50479 7.03151 0.422214C6.39106 0.0409583 3.44763 -0.140885 2.27042 0.127927ZM31.7213 14.7236C31.1284 15.3248 30.297 17.4848 29.8361 19.6213C29.5847 20.7861 29.529 20.9199 29.2663 20.9882C27.5146 21.4433 26.9633 23.2195 28.331 24.0012C28.6125 24.1621 28.8606 24.3129 28.8822 24.3364C28.9038 24.36 28.838 24.797 28.7358 25.3077C28.074 28.6177 28.262 29.8129 29.4444 29.8129C30.1458 29.8129 30.4723 29.359 30.6349 28.1582C31.0283 25.2535 31.3579 23.9166 31.6219 24.1545C31.7209 24.2438 31.8043 24.2444 31.8854 24.1564C31.9506 24.0857 32.3579 24.0446 32.7909 24.0653L33.5781 24.1028L33.8857 25.4205C34.6739 28.7961 35.197 29.9384 35.9553 29.9384C36.5499 29.9384 36.7462 29.3109 36.5481 28.0435C36.479 27.6018 36.3711 26.9014 36.3082 26.4873C36.2453 26.0731 36.1099 25.3513 36.0073 24.8831C35.8261 24.057 35.8275 24.0235 36.054 23.7536C36.8288 22.8297 36.6528 21.7208 35.6538 21.2318C35.1218 20.9714 35.0557 20.7185 35.0311 18.8458C35.0237 18.2861 34.9927 17.941 34.9621 18.0791C34.7774 18.9127 34.6448 18.5536 34.4843 16.7853C34.3774 15.6069 34.1133 15.0044 33.7037 15.0044C33.6243 15.0044 33.4048 14.8632 33.2159 14.6907C32.7413 14.2572 32.1688 14.2698 31.7213 14.7236ZM81.7228 14.5958C81.1256 14.9979 80.5826 16.2989 79.8543 19.0725L79.3627 20.9444L78.8469 21.1076C77.2466 21.6141 76.9706 24.1656 78.5162 24.1656C78.8056 24.1656 78.8048 24.4136 78.5104 25.797C78.3857 26.3837 78.2494 27.3541 78.2076 27.9533L78.1318 29.0429L78.4865 29.4279C79.3922 30.4111 80.2419 29.7894 80.5333 27.9305C81.0595 24.5712 81.214 23.9438 81.4601 24.1656C81.5657 24.2608 81.636 24.2627 81.6878 24.1717C81.7791 24.0112 83.328 23.9947 83.4183 24.1533C83.4538 24.2154 83.662 25.0389 83.8811 25.9831C84.6348 29.2317 85.6213 30.7254 86.3089 29.6594C86.5917 29.2213 86.3809 27.1815 85.7894 24.6316C85.6592 24.0705 85.6668 24.0348 86.014 23.5776C86.646 22.7454 86.3753 21.5825 85.4585 21.1916C84.9887 20.9913 84.8704 20.5508 84.8704 19.0018C84.8704 18.6557 84.8212 18.5183 84.697 18.5183C84.6016 18.5183 84.5236 18.4641 84.5236 18.3977C84.5236 16.7129 84.1495 15.2168 83.6886 15.0586C83.5437 15.0089 83.2644 14.8352 83.0677 14.6726C82.6486 14.3262 82.1643 14.2986 81.7228 14.5958ZM55.4699 14.5843C55.4266 14.6313 55.3911 15.1263 55.391 15.6842C55.3907 18.4451 54.9497 21.3664 54.1426 23.952C53.7408 25.2397 53.6583 25.1348 53.323 22.9106C53.1827 21.9788 52.9947 20.8494 52.9056 20.4007C52.0711 16.2048 51.8822 15.6512 51.096 15.0985C49.7485 14.1513 49.3166 15.4917 49.951 18.6513C50.5091 21.4304 50.9792 24.5873 51.0642 26.125C51.1263 27.2489 51.1866 27.5692 51.4041 27.9305C51.5496 28.172 51.7058 28.5109 51.7512 28.6834C52.5443 31.6938 56.749 26.6459 57.8665 21.3419C58.7432 17.1811 58.3973 14.8504 56.8781 14.6815L56.1209 14.5973L56.0407 16.549C55.9261 19.3392 55.6172 21.2222 54.9046 23.4754C54.5327 24.6514 54.005 25.723 53.8699 25.5764C53.7922 25.4921 53.8291 25.29 53.9817 24.9649C55.1315 22.5148 56.4156 13.5576 55.4699 14.5843ZM96.0263 14.8297C94.9454 14.9227 93.0648 15.0142 91.8471 15.033C90.6294 15.0517 89.693 15.1087 89.7662 15.1594C89.8394 15.2101 90.1693 15.2524 90.4994 15.2535C90.8294 15.2545 91.1368 15.321 91.1826 15.4014C91.2451 15.5112 90.8353 15.5271 89.5269 15.4656C86.7977 15.3374 86.4218 15.9801 88.0815 17.9376C88.4714 18.3977 89.0475 18.5571 90.5929 18.6329L92.0958 18.7065L92.0799 19.1458C91.8967 24.2346 91.8992 27.9541 92.0863 28.4858C92.5737 29.8711 93.8283 29.8859 94.0662 28.5092C94.1687 27.9165 94.3479 27.9272 94.3582 28.5266C94.3647 28.9041 94.386 28.9475 94.4657 28.7462C94.5204 28.6081 94.5687 26.2221 94.5732 23.444C94.5776 20.6659 94.6145 18.3928 94.6549 18.3928C94.9574 18.3928 97.7123 17.8504 97.9734 17.7395C98.1783 17.6524 98.368 17.4301 98.4776 17.1491C98.5742 16.9014 98.7608 16.4639 98.8921 16.1772C99.1217 15.6757 99.1231 15.6428 98.9282 15.3199C98.8167 15.1353 98.7538 14.904 98.7885 14.806C98.8639 14.5927 98.7702 14.5935 96.0263 14.8297ZM38.5705 15.0529C38.3796 15.1431 38.1522 15.3103 38.065 15.4245C37.9778 15.5385 37.8404 15.6319 37.7599 15.6319C37.6794 15.6319 37.4972 15.7342 37.355 15.859L37.0965 16.0863L37.3011 17.114C37.4244 17.7333 37.5631 18.1418 37.65 18.1418C37.8421 18.1418 37.8841 18.2723 38.3994 20.4635C38.6429 21.4988 39.002 23.0202 39.1976 23.8442C39.6149 25.6028 39.5934 25.4205 39.3838 25.4205C39.1466 25.4205 39.0538 25.166 38.7441 23.6636C38.5948 22.9389 38.4314 22.2943 38.3811 22.2312C38.2674 22.0883 38.3643 22.8491 38.5922 23.8879C38.8012 24.8403 38.7477 25.0871 38.3664 24.9297C36.4956 24.1576 36.3795 26.6908 38.2425 27.6358C39.1716 28.1072 39.3622 28.2554 39.5002 28.614C39.8535 29.5318 40.8564 29.831 41.661 29.2586C41.9015 29.0874 41.9889 29.0879 42.5042 29.2633C48.5463 31.3196 50.8381 26.7041 46.5365 21.1425C42.9582 16.516 40.0984 14.3299 38.5705 15.0529ZM62.6322 15.1883C62.1267 15.3839 61.5786 15.9026 61.3289 16.4216C61.2362 16.6144 61.0438 16.8202 60.9015 16.8789C59.3299 17.5276 58.6355 24.5649 59.8635 27.3999C61.3045 30.7265 65.0902 30.1718 66.2661 26.4615C67.1451 23.6882 66.3478 16.523 65.1061 16.0356C65.0084 15.9973 64.7415 15.7496 64.5128 15.4852C64.0439 14.9431 63.4914 14.8557 62.6322 15.1883ZM68.3668 15.1342C67.8952 15.34 67.8347 15.7122 67.9763 17.537C68.3168 21.9255 68.47 23.6558 68.5733 24.2828C68.635 24.6578 68.6857 25.9223 68.6857 27.0925C68.6857 29.7751 68.7204 29.8179 70.5354 29.372C71.899 29.0371 74.0392 28.8011 75.4962 28.8252C77.3019 28.8551 77.6257 28.6068 77.1897 27.5269C77.0983 27.3002 76.9963 26.9729 76.9633 26.7997C76.8207 26.0525 74.755 25.7875 72.5007 26.2271C71.37 26.4475 71.4675 26.7334 71.2135 22.4518C71.0913 20.3919 70.9204 18.1983 70.8339 17.5771L70.6763 16.4476L70.6637 17.3021C70.6502 18.2135 70.4793 18.3479 70.3594 17.5413C70.2801 17.0072 70.0779 15.9203 70.0002 15.6106C69.9062 15.2361 68.8436 14.9262 68.3668 15.1342ZM101.178 15.221C99.3308 16.0114 99.0132 25.8634 100.815 26.484C100.948 26.5301 101.261 26.8927 101.509 27.2898C103.878 31.0754 107.761 29.8111 108.913 24.8795C109.646 21.7396 109.42 16.169 108.531 15.4557L108.203 15.1927L107.948 15.5378C107.792 15.7501 107.582 15.8829 107.402 15.8829C106.657 15.8829 106.605 16.1009 106.598 19.2448C106.585 25.6265 105.968 27.3123 104.125 26.0016C103.748 25.7335 103.073 23.189 102.904 21.4047L102.804 20.338L102.841 21.7654C102.862 22.5595 102.836 23.1177 102.782 23.0236C102.354 22.2724 102.323 17.8985 102.743 17.5298C103.81 16.5923 102.497 14.6563 101.178 15.221ZM111.453 15.3533C110.903 15.6515 110.76 16.1611 110.795 17.6914C110.816 18.5976 110.785 18.9496 110.679 18.9883C110.571 19.0279 110.532 18.7473 110.523 17.8699C110.51 16.5612 110.397 15.914 110.247 16.2966C110.104 16.6631 110.277 25.9524 110.456 27.4523C110.651 29.1032 110.802 29.3892 111.536 29.5087C112.522 29.6692 112.541 29.5937 112.471 25.7603C112.405 22.1326 112.467 21.9029 112.964 23.919C114.339 29.4934 114.327 29.4618 114.957 29.4122L115.448 29.3737L115.693 28.4952C116.11 26.9944 116.477 25.1296 116.459 24.6048C116.441 24.1082 117.039 21.233 117.438 19.8987C117.637 19.2347 117.876 19.0633 117.876 19.585C117.876 19.7231 117.927 19.9207 117.99 20.0242C118.053 20.1278 118.215 20.7772 118.349 21.4674C118.484 22.1577 118.677 23.1459 118.777 23.6636C119.059 25.116 119.321 27.1961 119.321 27.9862C119.321 28.8998 119.436 29.1173 120.118 29.4922C121.481 30.2422 122.198 28.6837 121.702 26.048C121.145 23.0826 120.907 21.7563 120.645 20.1579C120.238 17.6663 119.857 16.5025 119.177 15.6753C118.587 14.9584 116.849 15.3912 116.724 16.2859C116.177 20.2224 114.831 25.7914 114.644 24.8961C114.149 22.5252 113.31 17.4414 113.31 16.8116C113.309 16.4652 112.807 15.5141 112.537 15.348C112.227 15.1578 111.811 15.1598 111.453 15.3533ZM68.7357 15.7397C68.6894 15.922 68.662 17.3418 68.6748 18.8948C68.7102 23.1877 68.4955 22.2987 68.1414 16.6859C68.0809 15.7287 68.0927 15.6575 68.3424 15.4676C68.683 15.2086 68.8427 15.319 68.7357 15.7397ZM112.827 16.981C112.885 17.1018 112.995 17.5959 113.072 18.0791C113.149 18.5622 113.312 19.479 113.434 20.1162C113.761 21.8249 113.541 22.1303 113.161 20.495C112.42 17.3059 112.28 15.8279 112.827 16.981ZM63.4505 17.2947C63.9863 18.0525 64.4337 20.7108 64.4485 23.2244C64.4699 26.8689 63.5861 28.5786 62.1094 27.7496C61.3032 27.2971 60.9953 26.3748 61.6991 26.5209C62.0349 26.5905 62.0343 26.5974 61.8088 25.1068C61.4979 23.0531 61.6473 20.4229 62.1579 18.9575C62.6867 17.4404 63.1406 16.8565 63.4505 17.2947ZM89.2408 17.8183C90.078 18.0133 90.212 18.1006 89.8262 18.2003C89.4746 18.291 88.4287 18.0019 88.3668 17.7967C88.309 17.6057 88.33 17.6063 89.2408 17.8183ZM32.8316 18.9889C33.1592 21.3007 33.1649 21.2737 32.3531 21.2773C31.7594 21.2798 31.739 21.1449 32.1036 19.6284C32.5494 17.7751 32.6473 17.689 32.8316 18.9889ZM82.7987 19.868C82.9373 21.218 82.9131 21.274 82.1894 21.2773C81.6087 21.2799 81.604 21.2511 81.9399 19.7636C82.4109 17.6784 82.5758 17.6984 82.7987 19.868ZM62.5677 18.717C62.5733 18.8632 62.6007 18.8929 62.6376 18.7929C62.671 18.7023 62.6668 18.594 62.6284 18.5523C62.59 18.5106 62.5628 18.5847 62.5677 18.717ZM41.9195 19.6957C44.4401 21.6077 47.7194 26.0445 47.2332 26.8848C46.793 27.6455 43.9798 27.5744 42.178 26.7571C41.6881 26.5349 41.7242 26.6548 41.2917 23.8118C41.0992 22.5475 40.8398 20.9708 40.7152 20.3081C40.4191 18.735 40.5591 18.6637 41.9195 19.6957ZM38.0503 21.1537C38.0503 21.2457 38.0849 21.2833 38.1274 21.2374C38.1697 21.1913 38.1697 21.116 38.1274 21.07C38.0849 21.0241 38.0503 21.0617 38.0503 21.1537ZM31.4284 25.1798C31.3223 25.6228 31.2107 26.1829 31.1804 26.4245C31.0262 27.6562 31.0002 28.1814 31.0935 28.1814C31.1502 28.1814 31.2301 27.834 31.2709 27.4091C31.3119 26.9843 31.4279 26.1945 31.5289 25.654C31.7579 24.4269 31.6878 24.0963 31.4284 25.1798ZM81.2568 25.3968C81.0916 26.2024 80.8503 28.6386 80.9935 28.056C81.0986 27.6283 81.536 24.52 81.4971 24.4777C81.4738 24.4525 81.3657 24.866 81.2568 25.3968ZM73.0209 29.6142L71.6336 29.758L73.9766 29.7604C75.5639 29.7622 76.3066 29.7204 76.2794 29.631C76.2238 29.4486 74.6947 29.4407 73.0209 29.6142ZM70.8822 29.8756C70.8822 29.9101 70.9082 29.9384 70.94 29.9384C70.9718 29.9384 70.9978 29.9101 70.9978 29.8756C70.9978 29.8411 70.9718 29.8129 70.94 29.8129C70.9082 29.8129 70.8822 29.8411 70.8822 29.8756Z" fill="white"/>
</svg>
